<?xml version="1.0" encoding="UTF-8"?>
<svg id="Capa_1" xmlns="http://www.w3.org/2000/svg" version="1.1" viewBox="0 0 198 243">
  <!-- Generator: Adobe Illustrator 29.8.2, SVG Export Plug-In . SVG Version: 2.1.1 Build 3)  -->
  <defs>
    <style>
      .st0 {
        fill: #063;
      }
    </style>
  </defs>
  <path class="st0" d="M49.9,205.9c.7.7.7,1.8,0,2.5-.5.5-.9.5-1.4.5s-.9,0-1.4-.5c0,0-8.9-9.6-8.2-16,0-1.6,1.1-3,2.5-3.9,1.4-.9,3-.9,4.4,0,4.1,2.1,7.1,9.8,7.3,13.5,0,.9-.7,1.8-1.6,2.1s-1.8-.7-2.1-1.6c-.2-3.4-3-9.4-5.3-10.5h-.7c-.5.2-.7.7-.7,1.1-.5,3.4,4.8,10.5,7.1,12.8h0ZM157.6,208.4c-3.9,4.6-7.3,6.6-11.2,6.6s-2.1,0-3-.2h0l-44.7-18.3-44.7,18.3h0c-1.1.5-2.3.7-3.4.7-3.7,0-7.3-2.3-11.2-6.9-8.2-10.1-7.1-18.3-3-22.4,1.6-1.8,3.9-3,6.2-3.4l11-3-15.3-6.9c-.7-.2-1.1-.9-1.1-1.6,0-6.2,3-14.9,8.2-18.6,2.5-1.8,5.5-2.5,8.2-1.6h.5l6.9,3.9c-3.9-7.1-6.6-14.7-7.8-21.8-2.3-13.5,1.1-24.3,9.6-31.4.7-.5,1.4-.5,2.1,0,0,0,.5.2.5.5-.7-3.4-.9-7.1-.9-10.5,0-10.8,2.5-20.4,7.8-27.9.5-.7,1.4-.9,2.3-.7.9.2,1.4,1.1,1.1,2.1-1.6,11,1.4,16.5,4.8,22.9,3,5.5,6.4,11.9,7.3,22.4,0,.9,0,1.6.2,2.1,0-3.9-.5-10.3-3.2-19.2-8.7-27.3-1.4-35.3,5.5-42.8,4.4-4.8,8.2-9.2,8.2-18.6s.2-1.1.9-1.6c.5-.2,1.1-.5,1.8,0,14.2,7.1,13.3,27.9,9.8,35-4.4,8.9-2.7,21.3-.9,22.7.5-.2,3.2-2.3,6.4-16.7,0-.7.7-1.1,1.4-1.4.7,0,1.4,0,1.8.5,5.3,5,6.6,15.6,6.9,21.5.5,6.4,0,13.3-1.1,17.9.5-.9.9-1.8,1.4-2.5,3.2-4.6,8-6.6,11.5-7.1.7,0,1.1,0,1.6.7.5.5.5,1.1.5,1.6-2.1,8.9-1.1,16.3,0,23.4,1.1,9.4,2.3,18.3-3.4,30l6.9-3.9h.5c3-.9,5.7-.5,8.2,1.6,5,3.9,8.2,12.4,8.2,18.6s-.5,1.4-1.1,1.6l-15.3,6.9,11.9,3.2h.9c1.8.7,3.4,1.6,4.6,3,3.9,4.4,5.3,12.4-3.2,22.4h0l-.9-.9ZM145,184.3c.2,0,.5-.2.9-.5l-27.9-7.6c-5.5,3.4-11.9,5-18.6,5s-.5,0-.9,0c-6.6,0-13.1-2.1-18.8-5.3l-28.9,7.8c.2,0,.5.2.9.5,8.2,6,9.4,13.3,8.7,18.3-.2,2.1-.9,4.1-1.6,6l39.2-16h.9l38.9,15.8c-.5-1.1-.9-2.5-1.4-3.9-.9-4.6-1.1-13.3,8.5-20.2h0ZM91.8,176.8c1.8.5,3.9.7,6,.7,5.7-2.3,9.4-13.5,9.8-20.8-1.6,0-2.1.5-3.2,1.4-.9.7-1.8,1.4-3.9,2.3-.7.2-1.4,0-1.8-.5s-.5-1.1,0-1.6c.2-.7,1.4-4.1,1.6-4.8.7-4.1-.5-6.4-1.8-9.2s-2.3-4.6-2.5-8.2c-2.1,3-1.8,6-1.4,9.8.5,4.4.9,9.4-2.1,15.6-.2.5-.7.7-1.1.9-.5,0-.9,0-1.4-.7-.2-.5-.5-.7-.7-1.1-.7-1.1-1.4-2.7-3.2-4.6,0,9.6,1.1,17.9,6.2,20.8h-.5ZM132.4,161c-1.6,2.5-3.7,5-6,7.8-1.4,1.8-3.2,3.2-4.8,4.6l16,4.4,18.3-8.2c-.5-5-2.7-11.7-6.6-14.4-1.6-1.1-3.2-1.6-4.8-1.1l-12.1,6.9h0v.2ZM123,114.3c-3,8.5-1.8,12.4-.7,13.5s.7.2.7.2c0,0,.2-.5,0-1.1-.9-5-.9-9.4-.2-12.6h.2ZM70.8,129.1c.9.9,1.6,1.4,1.8,1.4.2-.7.9-3.9-3.4-13.5-1.8-4.1-3.2-8.5-4.1-13.3-1.4,13.5,3,22.2,5.7,25.4h0ZM70.5,163.5c4.1,5.3,9.6,9.4,15.8,11.7-3.4-6-3.4-15.3-3.4-22.2s.2-1.1.7-1.4,1.1-.2,1.6,0c3,2.1,4.8,4.1,5.7,5.7,1.4-4.1,1.1-7.8.7-11.2-.5-5.3-.9-10.1,5-14.9.5-.5,1.1-.5,1.6,0,.5.2.9.9.7,1.4-.5,5,.9,7.8,2.3,10.3,1.4,2.7,2.7,5.7,2.1,11,0,0,0,.7-.5,1.6,1.6-1.1,2.7-1.8,6.4-1.8s1.4.7,1.4,1.4c0,6.4-2.5,17-7.8,22.2,8-.9,15.3-4.8,20.6-11,15.3-17.9,14-28.9,12.4-41.5-.9-6.6-1.8-13.3-.5-21.5-2.1.9-4.4,2.3-6.2,4.8-3.2,4.4-3.9,10.5-2.5,17.9.5,2.1-.2,4.1-1.8,5-1.6.9-3.4.7-5-.7-1.8-1.6-5-6.4.7-20.2,2.5-6.2,3.2-26.1-1.8-35.3-3.4,13.1-6.4,15.3-8.5,15.8-.9,0-2.5,0-3.9-1.6-3.4-4.4-3.7-17.9.7-26.6,1.4-2.7,2.3-8.9,1.4-15.1-.7-4.4-2.5-9.8-6.9-13.3-.9,8.7-5,13.3-9.2,17.9-6.6,7.1-12.8,14-4.8,39.2,4.4,13.7,4.4,24.3,1.8,26.8s-1.6.9-2.5.5c-1.1-.5-2.7-1.8-3.4-8.7-1.1-9.8-4.1-15.6-7.1-21.1-2.7-5-5.3-9.8-5.7-17-5.7,14-3.4,31.4,2.1,43.3,3,6.4,5.7,14.9,2.5,17.9-1.1,1.1-2.7,1.4-4.4.5-4.4-2.1-10.1-11.7-9.8-26.1-12.8,15.3-1.6,41.9,9.4,55.9h0l.2.5ZM58.6,177.9l16.7-4.6c-2.7-2.1-5.5-4.6-7.8-7.6-1.1-1.6-2.3-3.2-3.4-4.8l-12.4-6.9c-1.6-.5-3.2,0-4.8,1.1-3.9,2.7-6.4,9.4-6.6,14.4l18.3,8.2h0ZM52.2,211.1c.9-.5,3.9-4.6,4.4-9.6.2-3.9-.7-9.4-7.1-14.2-1.4-1.1-3.2-1.6-4.8-1.6s-.9,0-1.4,0l-1.4.5h0c-1.1.5-2.3,1.1-3,2.1-3.7,4.1-2.5,10.5,3.2,17.6,5,6.2,8.5,6,10.3,5.3h-.2ZM158,188.5c-.9-1.1-2.3-1.8-3.7-2.3h-.5c-2.3-.7-4.8-.2-6.9,1.1-6.6,4.8-7.6,10.8-7.1,14.7.5,5,3.2,8.5,4.1,8.9h0c3.4.7,6.2,0,10.5-5,5.7-6.9,7.1-13.3,3.2-17.4h.2ZM153,189.6c-1.6-.5-3.2-.2-4.6.7-3.7,2.5-5,9.2-5.3,11,0,.9.7,2.1,1.6,2.1s2.1-.7,2.1-1.6c.5-3.4,1.8-7.3,3.4-8.5.5-.2.9-.5,1.6,0,1.4.5,1.6,1.1,1.6,1.6.2,2.3-1.8,6.2-5.5,8.5-.9.5-1.1,1.6-.7,2.5.5.5.9.9,1.6.9s.7,0,.9-.2c4.6-3,7.6-8.2,7.1-12.1-.2-2.3-1.8-4.1-4.4-4.8h.5Z"/>
</svg>