<?xml version="1.0" encoding="UTF-8"?>
<svg id="Capa_1" xmlns="http://www.w3.org/2000/svg" xmlns:xodm="http://www.corel.com/coreldraw/odm/2003" version="1.1" viewBox="0 0 64.9 62.3">
  <!-- Generator: Adobe Illustrator 29.8.2, SVG Export Plug-In . SVG Version: 2.1.1 Build 3)  -->
  <defs>
    <style>
      .st0 {
        fill: #063;
      }
    </style>
  </defs>
  <path class="st0" d="M40,28.9c.1-.4.6-.6,1-.5s.6.6.5,1c-1.5,4.5-3.5,8.4-5.8,11.8l5.8-1.6c.4-.1.9.1,1,.6s-.1.9-.6,1l-7.8,2.2c-1.1,1.3-2.2,2.6-3.4,3.7-2.1,1.9-4.4,3.5-6.9,4.8,5.9,3.1,11.2,3.4,15.5,1.8,3.1-1.2,5.7-3.4,7.7-6.3,2-2.9,3.3-6.6,3.8-10.6,1.1-8.4-1.3-18.6-8.4-27.4,0,7.6-5.7,10.8-11.6,14-8.1,4.5-16.6,9.2-8.3,27.3,2-1,3.9-2.2,5.7-3.7l-1.4-5.6c-.1-.4.2-.9.6-1s.9.2,1,.6l1.2,4.8h0c2.3-2.1,4.3-4.6,6.1-7.5h0s-1.9-6.5-1.9-6.5c-.1-.4.1-.9.5-1s.9.1,1,.5l1.5,5c1.2-2.3,2.3-4.8,3.2-7.5ZM22.1,52.7c-2.7,1.2-5.7,2.1-8.8,2.7-.4,0-.9-.2-.9-.7,0-.4.2-.9.7-.9,2.9-.5,5.7-1.3,8.2-2.4-8.9-19.5.2-24.5,9-29.4,6-3.4,11.9-6.6,10.5-15,0-.4.2-.9.7-.9.3,0,.6,0,.7.3,8.7,9.7,11.6,21.2,10.4,30.6-.6,4.3-2,8.2-4.1,11.3-2.1,3.2-5,5.6-8.4,6.9-4.9,1.9-11,1.4-17.8-2.4Z"/>
</svg>