<?xml version="1.0" encoding="UTF-8"?>
<svg id="Capa_1" xmlns="http://www.w3.org/2000/svg" version="1.1" viewBox="0 0 100 125">
  <!-- Generator: Adobe Illustrator 29.8.2, SVG Export Plug-In . SVG Version: 2.1.1 Build 3)  -->
  <defs>
    <style>
      .st0 {
        fill: #063;
      }
    </style>
  </defs>
  <path class="st0" d="M62.6,99.3c-1,1-2.4,1.4-3.7,1.2l-31.6-5.6c0,0-.1,0-.2,0H11c-.6,0-1,.4-1,1s.4,1,1,1h16l31.5,5.6c.4,0,.7,0,1.1,0,1.6,0,3.2-.6,4.4-1.8l24.1-23.9c1.3-1.3,1.9-3,1.9-4.8s-.9-3.4-2.3-4.6c-2.4-1.9-5.7-1.9-8,0l-14.5,12.2h-1.1v-1.3c0-4-3.3-7.3-7.3-7.3h-11.5l-17.1-3.4c-2.7-.5-5.5.2-7.7,1.9-1.9,1.5-3.1,3.7-3.3,6.1h-6.2c-.6,0-1,.4-1,1s.4,1,1,1h7.1c.6,0,1-.4,1-1,0-2.2,1-4.2,2.6-5.6,1.7-1.4,3.9-1.9,6-1.5l17.2,3.4c0,0,.1,0,.2,0h11.6c2.9,0,5.3,2.4,5.3,5.3v1.3h-19.1c-.6,0-1,.4-1,1s.4,1,1,1h22.5c.2,0,.5,0,.6-.2l14.7-12.5c1.6-1.3,3.9-1.4,5.5,0,.9.8,1.5,1.9,1.6,3.1,0,1.2-.4,2.4-1.3,3.3l-24.1,23.9Z"/>
  <path class="st0" d="M18.9,42.1c.3.2.6.2.9.1l5.5-1.8,5.5,1.8c.1,0,.2,0,.3,0,.2,0,.4,0,.6-.2.3-.2.4-.5.4-.8v-5.8s3.4-4.6,3.4-4.6c.2-.3.2-.6.1-.9,0-.3-.3-.5-.6-.6l-5.5-1.7-3.3-4.7c-.4-.5-1.3-.5-1.6,0l-3.3,4.7-5.5,1.7c-.3,0-.5.3-.6.6,0,.3,0,.6.1.9l3.4,4.6v5.8c0,.3.1.6.4.8ZM17.5,30.8l4.5-1.4c.2,0,.4-.2.5-.4l2.7-3.8,2.7,3.8c.1.2.3.3.5.4l4.5,1.4-2.8,3.8c-.1.2-.2.4-.2.6v4.7s-4.4-1.5-4.4-1.5c-.2,0-.4,0-.6,0l-4.4,1.5v-4.7c0-.2,0-.4-.2-.6l-2.8-3.8Z"/>
  <path class="st0" d="M59.5,29.3l-5.5-1.7-3.3-4.7c-.2-.3-.5-.4-.8-.4s-.6.2-.8.4l-3.3,4.7-5.5,1.7c-.3,0-.5.3-.6.6,0,.3,0,.6.1.9l3.4,4.6v5.8c0,.3.1.6.4.8.3.2.6.2.9.1l5.5-1.8,5.5,1.8c.1,0,.2,0,.3,0,.2,0,.4,0,.6-.2.3-.2.4-.5.4-.8v-5.8s3.4-4.6,3.4-4.6c.2-.3.2-.6.1-.9,0-.3-.3-.5-.6-.6ZM54.8,34.6c-.1.2-.2.4-.2.6v4.7s-4.4-1.5-4.4-1.5c-.2,0-.4,0-.6,0l-4.4,1.5v-4.7c0-.2,0-.4-.2-.6l-2.8-3.8,4.5-1.4c.2,0,.4-.2.5-.4l2.7-3.8,2.7,3.8c.1.2.3.3.5.4l4.5,1.4-2.8,3.8Z"/>
  <path class="st0" d="M84.2,29.3l-5.5-1.7-3.3-4.7c-.4-.5-1.3-.5-1.6,0l-3.3,4.7-5.5,1.7c-.3,0-.5.3-.6.6,0,.3,0,.6.1.9l3.4,4.6v5.8c0,.3.1.6.4.8.2.1.4.2.6.2s.2,0,.3,0l5.5-1.8,5.5,1.8c.3.1.6,0,.9-.1.3-.2.4-.5.4-.8v-5.8s3.4-4.6,3.4-4.6c.2-.3.2-.6.1-.9,0-.3-.3-.5-.6-.6ZM79.4,34.6c-.1.2-.2.4-.2.6v4.7s-4.4-1.5-4.4-1.5c-.1,0-.2,0-.3,0s-.2,0-.3,0l-4.4,1.5v-4.7c0-.2,0-.4-.2-.6l-2.8-3.8,4.5-1.4c.2,0,.4-.2.5-.4l2.7-3.8,2.7,3.8c.1.2.3.3.5.4l4.5,1.4-2.8,3.8Z"/>
  <path class="st0" d="M48.5,51.2c0-.3-.3-.5-.6-.6l-5.5-1.7-3.3-4.7c-.2-.3-.5-.4-.8-.4s-.6.2-.8.4l-3.3,4.7-5.5,1.7c-.3,0-.5.3-.6.6,0,.3,0,.6.1.9l3.4,4.6v5.8c0,.3.1.6.4.8.3.2.6.2.9.1l5.5-1.8,5.5,1.8c.1,0,.2,0,.3,0,.2,0,.4,0,.6-.2.3-.2.4-.5.4-.8v-5.8s3.4-4.6,3.4-4.6c.2-.3.2-.6.1-.9ZM43.1,55.8c-.1.2-.2.4-.2.6v4.7s-4.4-1.5-4.4-1.5c-.2,0-.4,0-.6,0l-4.4,1.5v-4.7c0-.2,0-.4-.2-.6l-2.8-3.8,4.5-1.4c.2,0,.4-.2.5-.4l2.7-3.8,2.7,3.8c.1.2.3.3.5.4l4.5,1.4-2.8,3.8Z"/>
  <path class="st0" d="M61,44.1l-3.3,4.7-5.5,1.7c-.3,0-.5.3-.6.6,0,.3,0,.6.1.9l3.4,4.6v5.8c0,.3.1.6.4.8.3.2.6.2.9.1l5.5-1.8,5.5,1.8c.1,0,.2,0,.3,0,.2,0,.4,0,.6-.2.3-.2.4-.5.4-.8v-5.8s3.4-4.6,3.4-4.6c.2-.3.2-.6.1-.9,0-.3-.3-.5-.6-.6l-5.5-1.7-3.3-4.7c-.4-.5-1.3-.5-1.6,0ZM65,50.6l4.5,1.4-2.8,3.8c-.1.2-.2.4-.2.6v4.7s-4.4-1.5-4.4-1.5c-.1,0-.2,0-.3,0s-.2,0-.3,0l-4.4,1.5v-4.7c0-.2,0-.4-.2-.6l-2.8-3.8,4.5-1.4c.2,0,.4-.2.5-.4l2.7-3.8,2.7,3.8c.1.2.3.3.5.4Z"/>
</svg>